<svg width="95" height="24" viewBox="0 0 95 24" fill="none" xmlns="http://www.w3.org/2000/svg">
<path fill-rule="evenodd" clip-rule="evenodd" d="M24 12C24 18.6275 18.6274 24 11.9998 24C5.37258 24 0 18.6275 0 12C0 5.37248 5.37258 0 11.9998 0C18.6274 0 24 5.37248 24 12Z" fill="#0069B1"/>
<path fill-rule="evenodd" clip-rule="evenodd" d="M23.9983 12C23.9983 16.3346 21.7016 20.1284 18.2572 22.2371L9.84577 19.2881H9.84203L9.10114 19.0298C9.09324 19.0219 9.08076 19.0173 9.06786 19.0132C9.01378 18.9928 8.96012 18.9678 8.90188 18.9387C8.86403 18.9258 8.82659 18.9133 8.78915 18.8925C8.73923 18.868 8.68931 18.8472 8.64397 18.826C8.47715 18.7432 8.31949 18.66 8.16141 18.5639C8.10733 18.5306 8.05325 18.4973 8.00333 18.4686C7.6539 18.2519 7.32068 18.0065 7.01326 17.7319C6.97125 17.6945 6.92591 17.6491 6.88389 17.6113C6.57605 17.3288 6.29734 17.0168 6.03984 16.6841C6.00198 16.63 5.96454 16.5801 5.92336 16.5214C5.836 16.4012 5.7528 16.276 5.67334 16.1474L5.66128 16.1345C5.524 15.964 5.41584 15.7689 5.34055 15.5526C4.81681 14.5247 4.52936 13.352 4.52936 12.1082V12.0541C4.52936 8.93421 6.32687 6.23028 9.11778 5.08632L9.83329 4.83631L18.3824 1.84161C21.7557 3.95899 23.9983 7.71952 23.9983 12Z" fill="#00ADC6"/>
<path fill-rule="evenodd" clip-rule="evenodd" d="M17.8112 16.4341C17.8112 16.9791 17.5629 17.4104 17.2101 17.737C15.9988 18.8439 14.4517 19.5973 12.0768 19.5973C11.9549 19.5973 11.8326 19.5973 11.7153 19.5931C11.5626 19.5844 11.4187 19.5761 11.2706 19.5628C11.1574 19.5494 11.0484 19.5365 10.939 19.5191C10.9045 19.5191 10.8695 19.5108 10.8346 19.5062C10.7214 19.4887 10.6083 19.4712 10.4993 19.445C10.3903 19.4276 10.2813 19.4018 10.1765 19.3751C10.0633 19.3493 9.95435 19.319 9.84577 19.2882C9.81499 19.2795 9.7892 19.2749 9.75883 19.262C9.64942 19.2316 9.54043 19.1925 9.43144 19.153C9.36613 19.1355 9.30082 19.1097 9.24009 19.0835C9.12652 19.0399 9.01337 18.9916 8.8998 18.9396C8.86527 18.9263 8.82575 18.9134 8.79081 18.8918C8.73881 18.8697 8.69097 18.8481 8.64313 18.8265C8.47757 18.7437 8.32074 18.6609 8.15933 18.5648C8.10691 18.5299 8.05492 18.4995 8.0025 18.4691C7.6539 18.2511 7.32235 18.007 7.01326 17.7324C6.96958 17.6933 6.92591 17.6496 6.88264 17.6105C6.5773 17.3272 6.29858 17.0177 6.0415 16.6825C6.00198 16.63 5.96329 16.578 5.92377 16.521C5.83683 16.3992 5.75405 16.2773 5.67542 16.1467L5.66253 16.1333C5.52275 15.9632 5.41376 15.7673 5.34013 15.5539C4.81723 14.5256 4.52936 13.3533 4.52936 12.107V12.055C4.52936 8.81696 6.46415 6.02818 9.43602 4.96533C10.2597 4.66873 11.162 4.50732 12.1292 4.50732C14.3206 4.50732 15.8594 5.10011 17.0745 6.12884C17.3495 6.35098 17.7243 6.83436 17.7243 7.53571C17.7243 8.56861 16.8873 9.37937 15.8594 9.37937C15.319 9.37937 14.9134 9.1614 14.6692 8.96962C13.9417 8.40305 13.1837 8.05029 12.1025 8.05029C10.0463 8.05029 8.58614 9.86733 8.58614 11.998V12.055C8.58614 12.7214 8.71718 13.3446 8.95679 13.8978C9.01337 14.0372 9.08326 14.1682 9.15689 14.2988C9.17436 14.3251 9.18767 14.3513 9.20514 14.3775C9.29208 14.521 9.38818 14.652 9.49259 14.7785C9.52754 14.8305 9.5708 14.8742 9.6149 14.922C9.64069 14.9524 9.67147 14.9831 9.69726 15.0135C9.7451 15.0568 9.79336 15.105 9.84577 15.1529C9.90235 15.2053 9.9635 15.2577 10.0288 15.3097C10.0767 15.3534 10.1332 15.3879 10.1856 15.4228C10.2073 15.4449 10.2335 15.4624 10.2638 15.4798C10.3204 15.5189 10.382 15.5585 10.4469 15.5934C10.508 15.6321 10.5733 15.6629 10.6387 15.6974C10.813 15.7848 10.996 15.8542 11.1878 15.9066C11.2618 15.9287 11.3363 15.9503 11.4187 15.9678H11.4274C11.4969 15.9853 11.5759 15.9982 11.6541 16.011C11.6803 16.0156 11.7061 16.0156 11.7327 16.0244C11.7889 16.0285 11.8413 16.0377 11.9025 16.0377C11.9457 16.046 11.994 16.046 12.0464 16.0506C12.1163 16.0551 12.1857 16.0593 12.2598 16.0593C13.14 16.0593 13.8589 15.8064 14.517 15.3796C14.6172 15.3143 14.7217 15.2444 14.8219 15.1703C14.8481 15.1529 14.8702 15.1354 14.8914 15.1138C14.918 15.0963 14.9438 15.0788 14.97 15.0568C14.9962 15.0356 15.0224 15.0135 15.0574 14.996C15.0877 14.974 15.1227 14.9524 15.1618 14.9307C15.2795 14.8654 15.4147 14.8043 15.567 14.7564C15.7238 14.7086 15.8939 14.6778 16.077 14.6778C17.0487 14.6778 17.8112 15.4624 17.8112 16.4341Z" fill="#FEFEFE"/>
<path fill-rule="evenodd" clip-rule="evenodd" d="M9.20501 14.8782C9.20501 15.4056 9.00034 15.8849 8.66047 16.238C8.30313 16.6299 7.78896 16.8741 7.21364 16.8741C6.59048 16.8741 6.04178 16.5862 5.67571 16.1465L5.66239 16.1336C5.52262 15.9631 5.41405 15.7676 5.34 15.5537C5.26179 15.3445 5.21811 15.1136 5.21811 14.8782C5.21811 13.78 6.11125 12.8868 7.21364 12.8868C7.41415 12.8868 7.61008 12.9176 7.79312 12.9788C8.29023 13.1264 8.69957 13.4663 8.94792 13.9064C9.11349 14.1901 9.20501 14.5254 9.20501 14.8782Z" fill="#98C93C"/>
<path fill-rule="evenodd" clip-rule="evenodd" d="M37.5448 14.6158C37.2973 14.6158 37.0791 14.6569 36.8944 14.7382C36.736 14.8089 36.5652 14.9087 36.387 15.0353C36.2092 15.1614 36.1119 15.2181 36.0616 15.2427C35.7522 15.3968 35.2507 15.4752 34.5705 15.4752C33.6569 15.4752 32.9301 15.1634 32.3477 14.5221C31.7554 13.8714 31.4675 13.0682 31.4675 12.0679C31.4675 11.0227 31.7513 10.2056 32.335 9.56922C32.9104 8.9423 33.6936 8.63788 34.7297 8.63788C34.884 8.63788 35.0997 8.66622 35.3703 8.72086C35.6961 8.78742 35.8653 8.85151 35.9337 8.88519C36.0525 8.95134 36.1775 9.03556 36.3045 9.13498C36.4716 9.26644 36.6469 9.37367 36.8251 9.45337C37.0259 9.54375 37.2693 9.58812 37.5679 9.58812C37.9973 9.58812 38.3648 9.41023 38.6321 9.07376C38.8804 8.75866 39.0062 8.38892 39.0062 7.97398C39.0062 7.16383 38.5409 6.51637 37.6228 6.05009C36.7859 5.6257 35.6825 5.41043 34.3433 5.41043C33.1314 5.41043 32.0285 5.69801 31.0658 6.26495C30.1019 6.83353 29.3409 7.63135 28.8043 8.63705C28.2705 9.63618 28 10.7902 28 12.0679C28 13.2975 28.2577 14.4305 28.7663 15.4346C29.2794 16.4497 30.0169 17.257 30.9582 17.8334C31.899 18.4102 32.9994 18.7027 34.2298 18.7027C35.0457 18.7027 35.8273 18.6033 36.5528 18.4073C37.2907 18.2072 37.8979 17.9316 38.3586 17.5881C38.8787 17.1995 39.1427 16.7574 39.1427 16.2747C39.1427 15.8056 38.9996 15.4103 38.717 15.0989C38.425 14.7785 38.0307 14.6158 37.5448 14.6158Z" fill="#00ADC6"/>
<path fill-rule="evenodd" clip-rule="evenodd" d="M48.816 12.0678C48.816 13.0711 48.5462 13.8763 47.991 14.5291C47.4494 15.1659 46.7672 15.4752 45.9047 15.4752C45.0434 15.4752 44.3652 15.1663 43.8315 14.5307C43.2829 13.8779 43.016 13.0723 43.016 12.0678C43.016 11.0638 43.2866 10.2544 43.8422 9.59425C44.3838 8.95049 45.0582 8.63785 45.9047 8.63785C46.7659 8.63785 47.4482 8.9509 47.9898 9.59425C48.5458 10.2549 48.816 11.0642 48.816 12.0678ZM51.7857 5.90298C51.4569 5.57596 51.0404 5.4104 50.547 5.4104C50.0513 5.4104 49.633 5.5813 49.3047 5.91818C49.1364 6.09032 49.0114 6.28464 48.9294 6.4995C48.5693 6.24314 48.163 6.02048 47.7151 5.83478C47.0366 5.55337 46.3003 5.4104 45.5286 5.4104C44.4475 5.4104 43.4444 5.70044 42.5469 6.2719C41.6539 6.8409 40.9407 7.64283 40.4285 8.65592C39.9203 9.66121 39.6625 10.8091 39.6625 12.0678C39.6625 13.3282 39.9244 14.4732 40.4412 15.4715C40.9618 16.4764 41.6819 17.2742 42.5824 17.8424C43.4861 18.413 44.5082 18.7027 45.6193 18.7027C46.3832 18.7027 47.1215 18.5342 47.8128 18.2027C48.2546 17.9903 48.6419 17.7463 48.971 17.4731C48.976 17.7426 49.4227 18.7014 50.547 18.7014C51.0424 18.7014 51.4607 18.5305 51.7898 18.1936C52.1157 17.8596 52.2806 17.4418 52.2806 16.9521V7.16011C52.2806 6.65356 52.1144 6.23082 51.7861 5.90339L51.7857 5.90298Z" fill="#00ADC6"/>
<path fill-rule="evenodd" clip-rule="evenodd" d="M61.6804 11.4559L64.8292 8.56946C65.2747 8.18041 65.5011 7.74452 65.5011 7.2729C65.5011 6.89083 65.3328 6.51985 65.002 6.17065C64.665 5.81611 64.2724 5.63658 63.8356 5.63658C63.3563 5.63658 62.9319 5.81734 62.578 6.17024L58.3477 10.246V2.74971C58.3477 2.26 58.1831 1.8426 57.8565 1.50778C57.5277 1.1709 57.1095 1 56.6141 1C56.1188 1 55.7005 1.1709 55.3718 1.50778C55.0455 1.84219 54.8805 2.25959 54.8805 2.74971V16.9519C54.8805 17.4421 55.0459 17.8599 55.3714 18.1931C55.6997 18.5308 56.1179 18.7017 56.6141 18.7017C57.1099 18.7017 57.5282 18.5308 57.8569 18.1935C58.1831 17.8595 58.3477 17.4417 58.3477 16.9519V14.5145L59.0712 13.8531L63.2895 18.1183C63.6343 18.4999 64.0632 18.693 64.5648 18.693C64.9888 18.693 65.3881 18.5332 65.7511 18.2177C66.1293 17.8895 66.3211 17.4757 66.3211 16.9889C66.3211 16.5161 66.1417 16.0884 65.7919 15.7207L61.6804 11.4559Z" fill="#00ADC6"/>
<path fill-rule="evenodd" clip-rule="evenodd" d="M76.318 12.0678C76.318 13.0711 76.0482 13.8763 75.493 14.5291C74.9514 15.1659 74.2691 15.4752 73.4066 15.4752C72.5453 15.4752 71.8672 15.1663 71.3334 14.5307C70.7848 13.8779 70.518 13.0723 70.518 12.0678C70.518 11.0638 70.7885 10.2544 71.3442 9.59425C71.8858 8.95049 72.5602 8.63785 73.4066 8.63785C74.2679 8.63785 74.9502 8.9509 75.4918 9.59425C76.0478 10.2549 76.318 11.0642 76.318 12.0678ZM79.2876 5.90298C78.9588 5.57596 78.5422 5.4104 78.0489 5.4104C77.5531 5.4104 77.1349 5.5813 76.8066 5.91818C76.6383 6.09032 76.5133 6.28464 76.4312 6.4995C76.0712 6.24314 75.6649 6.02048 75.2169 5.83478C74.5384 5.55337 73.8022 5.4104 73.0305 5.4104C71.9494 5.4104 70.9463 5.70044 70.0488 6.2719C69.1558 6.8409 68.4426 7.64283 67.9303 8.65592C67.4222 9.66121 67.1644 10.8091 67.1644 12.0678C67.1644 13.3282 67.4263 14.4732 67.9431 15.4715C68.4636 16.4764 69.1838 17.2742 70.0842 17.8424C70.9879 18.413 72.01 18.7027 73.1212 18.7027C73.8851 18.7027 74.6234 18.5342 75.3147 18.2027C75.7564 17.9903 76.1437 17.7463 76.4729 17.4731C76.4778 17.7426 76.9245 18.7014 78.0489 18.7014C78.5443 18.7014 78.9625 18.5305 79.2917 18.1936C79.6175 17.8596 79.7825 17.4418 79.7825 16.9521V7.16011C79.7825 6.65356 79.6163 6.23082 79.288 5.90339L79.2876 5.90298Z" fill="#00ADC6"/>
<path fill-rule="evenodd" clip-rule="evenodd" d="M91.6469 12.0454C91.6469 13.049 91.3713 13.8583 90.8046 14.519C90.2527 15.1623 89.5651 15.4754 88.7025 15.4754C87.8244 15.4754 87.1293 15.1627 86.5778 14.519C86.0111 13.8588 85.7359 13.0494 85.7359 12.0454C85.7359 11.0421 86.0106 10.2369 86.5766 9.58411C87.1285 8.94733 87.8235 8.63798 88.7025 8.63798C89.5803 8.63798 90.2716 8.94692 90.8157 9.58247C91.3751 10.2357 91.6469 11.0417 91.6469 12.0454ZM94.2208 8.64164C93.7003 7.63717 92.9801 6.83934 92.0801 6.27076C91.1748 5.70012 90.1535 5.41049 89.0427 5.41049C88.2739 5.41049 87.5286 5.59577 86.827 5.96141C86.4046 6.18202 86.035 6.4277 85.7216 6.6972C85.6395 6.49384 85.5558 5.41049 84.115 5.41049C83.6192 5.41049 83.201 5.5814 82.8727 5.91827C82.5464 6.25227 82.3814 6.89645 82.3814 7.38615V21.2503C82.3814 21.7577 82.5476 22.1804 82.8764 22.507C83.2043 22.8344 83.6213 23 84.115 23C84.6104 23 85.0282 22.8291 85.3582 22.4918C85.6836 22.1574 85.8486 21.74 85.8486 21.2503V17.6124C86.1695 17.8417 86.5288 18.0475 86.9239 18.2278C87.6131 18.5429 88.3564 18.7028 89.1335 18.7028C90.2154 18.7028 91.2189 18.4127 92.1152 17.8413C93.0082 17.2731 93.7209 16.4703 94.2336 15.4572C94.7422 14.4519 95 13.3041 95 12.0453C95 10.7857 94.7381 9.64035 94.2208 8.64164Z" fill="#00ADC6"/>
</svg>
